<svg xmlns="http://www.w3.org/2000/svg" viewBox="0 0 539.01 244.29"><g id="e1a19550-c6b3-45b6-9208-40c983d1f79d" data-name="Layer 2"><g id="acd1aaad-383a-4227-a679-fcdbe18a6ab6" data-name="Layer 1"><polygon points="97.81 92.9 97.93 94.06 99.12 92.9 97.81 92.9" style="fill:none"/><polygon points="86.7 95.31 72.88 95.31 63.12 189.02 104.9 189.19 96.46 92.9 85.98 92.9 86.7 95.31" style="fill:none"/><polygon points="94.67 72.56 75.25 72.56 73.33 91.04 96.29 91.04 94.67 72.56" style="fill:none"/><rect x="78.06" y="46.67" width="4.36" height="12.38" style="fill:#ffe600"/><rect x="87.06" y="46.67" width="4.36" height="12.38" style="fill:#ffe600"/><path d="M170.27,226.23l-3.28-.76s-5.31-4.29-6.19-4.29a25.42,25.42,0,0,1-6.06.25c-2.78-.38-5.56-17.68-6.07-18.06s-9.09,5.3-12,5.43S123.92,193,122.78,193.14s-7.85,8.6-9.14,10.22l-.84-13.51H108L98.06,95.3l3.13-3.07A.69.69,0,0,0,100.7,91H97.62l-2-18.72a.85.85,0,0,0-.84-.76h-.75v-6h0l1.72-3.29a.64.64,0,0,0-.57-.94H94.09v-.81a.83.83,0,0,0,.76-.82.85.85,0,0,0-.84-.84H92.88V46.1H77V58.89H75.88a.84.84,0,0,0,0,1.67v.8H74.7a.64.64,0,0,0-.57.94l1.69,3.29v6h-.7a.86.86,0,0,0-.85.76L72.32,91H69.25a.7.7,0,0,0-.49,1.19l3.11,3.08h0L62,189.85H57.09l-.74,12-.14,0C32.84,207.66,0,243.92,0,243.92s3.16,1.13,25.14-1.65c17-2.15,44-14.16,55.26-19.46C69.9,229,47.75,244.29,47.75,244.29s10.48-.37,27.41-2.27,32.46-11.37,52.42-11.37,26.27,13.64,39,13.64,20.21-5.55,20.21-5.55C174.57,238.48,170.27,226.23,170.27,226.23ZM94.74,73.33,96.29,91H86.52a22.72,22.72,0,0,0,3.83-5c3.38-5.74-.16-12.89,1.19-12.91,1,0,1-.46.92-.58H93.9A.84.84,0,0,1,94.74,73.33ZM93.38,60.57v.79H89.84v-.79ZM87.55,47h3.33v11.8H87.55ZM82.4,58.82H79V47h3.4ZM85,47h0a1.81,1.81,0,0,1,1.81,1.81V57A1.81,1.81,0,0,1,85,58.82h0A1.81,1.81,0,0,1,83.16,57V48.83A1.81,1.81,0,0,1,85,47Zm-.33,16v-.12l10.26-.7-1.23,2.33-.3.55-.26.49-.06.13h0v4.76H88a3.07,3.07,0,0,0,.51-1.83,2.89,2.89,0,0,0-.17-1v0c-.17-.52.09-1.33,1.35-1.35s1.07-.54,1.07-.54l-6-.11a1.11,1.11,0,0,0,.74-1A2.42,2.42,0,0,0,84.65,63Zm1.7,126.07A72.87,72.87,0,0,0,93,174.57c4.86-14.64-1.76-55.08-5-72.32-.42-3.53,1.46-5.15,3.81-5.31C95,96.73,94,95.48,94,95.48h-7.3v-.07A7.81,7.81,0,0,0,86,92.9L100.06,92l-3.39,3.3,8.23,93.88Zm44.7,24.11c-4.54,0-2-2.9-4.23-4.67s-4.86-2.91-5.11-5.18,1.38-5.56,1.38-5.56,12.38,13,13.65,16.42S134.66,213.22,131.05,213.22Zm17.7,5.62c-.63-2.08-4.11-3.22-4.36-5.43s1.7-3.54,2.27-4-.63-1.7-.38-2.65a3,3,0,0,1,1.46-1.52s3.09,15.67,4.67,15.86C152.41,221.12,149.38,220.93,148.75,218.84Zm-62-181.26a2.77,2.77,0,0,0-1.1-2.15.45.45,0,0,1-.26-.39V30.85a.5.5,0,0,0-.5-.5.5.5,0,0,0-.5.5v4.29a.46.46,0,0,1-.22.37,3,3,0,0,0-1,2.08.41.41,0,0,1-.34.35c-5.4,1.05-8.58,5.81-9.57,7.55a.42.42,0,0,0,.36.63h22.6a.42.42,0,0,0,.37-.63c-1-1.73-4.09-6.52-9.5-7.56A.4.4,0,0,1,86.78,37.58Z" style="fill:#00000b"/><rect x="81.79" y="173.43" width="7.33" height="15.66" style="fill:#fff"/><rect x="81.79" y="128.97" width="7.33" height="7.33" style="fill:#fff"/><rect x="81.79" y="106.99" width="7.33" height="7.33" style="fill:#fff"/><polygon points="96.88 58.1 526.36 123.28 486.95 209.18 96.88 58.1" style="fill:#ffe600"/><polygon points="96.88 62.91 281.31 147.28 221.18 200.84 96.88 62.91" style="fill:#ffe600"/><path d="M149.21,99.55a1.69,1.69,0,0,1,1.91,1.9V125a88.14,88.14,0,0,0,15.73-1.18,23.47,23.47,0,0,0,4.73-1.34,4.15,4.15,0,0,0,2.17-2.09,9.76,9.76,0,0,0,.64-4V103a17.22,17.22,0,0,0-.9-6.28,5.54,5.54,0,0,0-3.08-3.11,16.7,16.7,0,0,0-6.22-.91A103,103,0,0,0,133,97.32a5.68,5.68,0,0,1-.64-2.78,6.56,6.56,0,0,1,.42-2.57,121.2,121.2,0,0,1,35.71-5,39.75,39.75,0,0,1,11.21,1.23,9.44,9.44,0,0,1,5.74,4.34q1.76,3.11,1.75,8.88v15.31a10.91,10.91,0,0,1-2.33,7.39c-1.56,1.78-4.08,3.07-7.55,3.85a161.15,161.15,0,0,1-26.14,2.14V152.6q0,5.86,1.17,5.87H159a4,4,0,0,1,.43,2,5.53,5.53,0,0,1-.32,1.77,49.64,49.64,0,0,1-13.6,2,29.8,29.8,0,0,1-4.84-.27,2.52,2.52,0,0,1-1.91-1.17,6.49,6.49,0,0,1-.37-3.14V103.06a2.3,2.3,0,0,1,1.8-2.23A28.65,28.65,0,0,1,149.21,99.55Z" style="fill:#00000b"/><path d="M247.72,162.22a50.77,50.77,0,0,1-14.35,2,23.37,23.37,0,0,1-4.2-.27,2.53,2.53,0,0,1-1.75-.95,4.64,4.64,0,0,1-.42-2.29q-12.23,3.51-21.05,3.51c-3.89,0-6.66-.61-8.29-1.82s-2.44-3.31-2.44-6.31v-15a10.19,10.19,0,0,1,2.23-7c1.49-1.67,3.86-2.87,7.12-3.58A147.78,147.78,0,0,1,227,128.71v-8.46q0-4.12-1.55-5.43t-6.32-1.3a89.44,89.44,0,0,0-11.9,1.51q-7.75,1.5-10.2,2.26a6.84,6.84,0,0,1-.53-2.67,4.43,4.43,0,0,1,.42-2.14q13.5-4.28,31.24-4.28,5.75,0,8.35,1.81t2.6,5.93v36.7c0,3.88.39,5.83,1.17,5.83h7.33a4,4,0,0,1,.43,2A5.53,5.53,0,0,1,247.72,162.22ZM227,155.92V133.28a61,61,0,0,0-11.06,1q-5.31,1-7.22,2.58-1.38,1.08-1.38,4.85v11.95q0,4.85,6.69,4.84Q219,158.47,227,155.92Z" style="fill:#00000b"/><path d="M257.17,113.94h-7.33a4,4,0,0,1-.42-2,5.27,5.27,0,0,1,.32-1.77,52.1,52.1,0,0,1,14.34-2,24.91,24.91,0,0,1,4.47.27,2.07,2.07,0,0,1,1.64,1.17,8.05,8.05,0,0,1,.27,3.13q10.52-4.56,15-4.57,5.85,0,8.29,1.86c1.63,1.24,2.45,3.32,2.45,6.22v10a2.21,2.21,0,0,1-1.7,2.12,30.88,30.88,0,0,1-8.61,1.17,1.59,1.59,0,0,1-1.81-1.8v-8.82c0-2.62-1.38-3.94-4.14-3.94q-3.3,0-9.46,2.55v35.09q0,5.84,1.17,5.83H279a4,4,0,0,1,.43,2,5.53,5.53,0,0,1-.32,1.77,52.22,52.22,0,0,1-14.35,2,24.77,24.77,0,0,1-4.46-.27,2.06,2.06,0,0,1-1.65-1.16,8.1,8.1,0,0,1-.27-3.13V119.77C258.34,115.89,258,113.94,257.17,113.94Z" style="fill:#00000b"/><path d="M355.8,162.22a50.77,50.77,0,0,1-14.35,2,23.37,23.37,0,0,1-4.2-.27,2.51,2.51,0,0,1-1.75-.95,4.52,4.52,0,0,1-.43-2.29q-12.22,3.51-21,3.51-5.85,0-8.29-1.82t-2.44-6.31v-15a10.19,10.19,0,0,1,2.23-7c1.49-1.67,3.86-2.87,7.12-3.58a147.65,147.65,0,0,1,22.42-1.82v-8.46q0-4.12-1.54-5.43c-1-.87-3.13-1.3-6.32-1.3a89.25,89.25,0,0,0-11.9,1.51q-7.77,1.5-10.21,2.26a7,7,0,0,1-.53-2.67,4.31,4.31,0,0,1,.43-2.14q13.49-4.28,31.24-4.28,5.75,0,8.34,1.81t2.61,5.93v36.7c0,3.88.39,5.83,1.17,5.83h7.33a4,4,0,0,1,.42,2A5.51,5.51,0,0,1,355.8,162.22Zm-20.73-6.3V133.28a60.84,60.84,0,0,0-11.05,1q-5.31,1-7.23,2.58-1.38,1.08-1.38,4.85v11.95q0,4.85,6.7,4.84Q327.11,158.47,335.07,155.92Z" style="fill:#00000b"/><path d="M366.85,188.44a6.31,6.31,0,0,1-1-2.82,7.09,7.09,0,0,1,.43-2.81q16.35,0,23.16-1.45a11.25,11.25,0,0,0,4.89-1.9,5.34,5.34,0,0,0,1.65-2.22,11.79,11.79,0,0,0,.37-3.46V159.64l-4.57,1.28q-5.2,1.38-8.93,2.22a35.7,35.7,0,0,1-8.71,1.07q-5.85,0-8.29-1.86t-2.44-6.22V120q0-6.59,7.43-9.25t23.81-2.55a26.16,26.16,0,0,1,8.34,1,7.14,7.14,0,0,1,4.2,3.5,15.85,15.85,0,0,1,1.28,7.1v55a10.4,10.4,0,0,1-2.29,7.11q-2.28,2.58-7.07,3.55Q385.88,188.44,366.85,188.44Zm8.71-68v33.05q0,4.36,5.95,4.36,4.68,0,14.88-3V121q0-4.78-1.33-6.54t-4.83-1.75q-9.25,0-11.91,1.7Q375.46,116.17,375.56,120.42Z" style="fill:#00000b"/><path d="M467.91,119.7v32.69q0,6.39-7.33,9.16t-23.7,2.66a26,26,0,0,1-8.4-1.07,7.55,7.55,0,0,1-4.3-3.51,15,15,0,0,1-1.33-7V120q0-6.6,7.44-9.26t23.8-2.56a26.87,26.87,0,0,1,8.35,1,7.13,7.13,0,0,1,4.19,3.46A15.44,15.44,0,0,1,467.91,119.7ZM455.8,152.06V121c0-3.2-.45-5.39-1.33-6.56s-2.5-1.76-4.84-1.76q-9.24,0-11.9,1.7c-1.91,1.2-2.84,3.22-2.76,6v30.93q0,4.78,1.27,6.48c.85,1.14,2.55,1.7,5.1,1.7q9.36,0,11.91-1.6C455,156.79,455.87,154.84,455.8,152.06Z" style="fill:#00000b"/><path d="M496.92,117.55v43.36a2.22,2.22,0,0,1-1.7,2.13,30.78,30.78,0,0,1-8.61,1.17,1.59,1.59,0,0,1-1.8-1.81V119.77c0-3.88-.39-5.83-1.17-5.83H476.3a4,4,0,0,1-.42-2,5.53,5.53,0,0,1,.32-1.77,52.17,52.17,0,0,1,14.35-2,24.85,24.85,0,0,1,4.46.27,2.09,2.09,0,0,1,1.65,1.17,8.31,8.31,0,0,1,.26,3.13l3.93-1.17c2.48-.7,4.25-1.17,5.32-1.38-.07,0,.7-.17,2.34-.53a62.44,62.44,0,0,1,7.22-1.27c1.7-.15,2.91-.22,3.61-.22q5.85,0,8.29,1.86c1.63,1.24,2.45,3.3,2.45,6.2v36.38c0,3.88.39,5.83,1.17,5.83h7.33a4,4,0,0,1,.43,2,5.53,5.53,0,0,1-.32,1.77,52.22,52.22,0,0,1-14.35,2,24.77,24.77,0,0,1-4.46-.27,2.09,2.09,0,0,1-1.65-1.17,8.05,8.05,0,0,1-.27-3.13v-40.7q0-4.36-6-4.36Q507.23,114.58,496.92,117.55Z" style="fill:#00000b"/><polygon points="98.91 51.03 262.61 26.27 251.5 0 98.91 51.03" style="fill:#ffe600;opacity:0.5"/><polygon points="97.89 54.32 319.2 28.55 329.81 83.12 97.89 54.32" style="fill:#ffe600;opacity:0.5"/></g></g></svg>